solid Default
  facet normal 0.000000e+00 0.000000e+00 1.000000e+00
    outer loop
      vertex -1.915110e+00 -1.606968e+00 1.000000e+01
      vertex -2.165060e+00 -1.249999e+00 1.000000e+01
      vertex -1.000000e+01 -5.773501e+00 1.000000e+01
    endloop
  endfacet
  facet normal 0.000000e+00 0.000000e+00 1.000000e+00
    outer loop
      vertex -1.000000e+01 -5.773501e+00 1.000000e+01
      vertex -2.165060e+00 -1.249999e+00 1.000000e+01
      vertex -2.349230e+00 -8.550491e-01 1.000000e+01
    endloop
  endfacet
  facet normal 0.000000e+00 0.000000e+00 1.000000e+00
    outer loop
      vertex 1.915110e+00 1.606970e+00 1.000000e+01
      vertex 2.165060e+00 1.250001e+00 1.000000e+01
      vertex 1.000000e+01 5.773504e+00 1.000000e+01
    endloop
  endfacet
  facet normal 0.000000e+00 0.000000e+00 1.000000e+00
    outer loop
      vertex 1.000000e+01 5.773504e+00 1.000000e+01
      vertex 2.165060e+00 1.250001e+00 1.000000e+01
      vertex 2.349230e+00 8.550518e-01 1.000000e+01
    endloop
  endfacet
  facet normal 0.000000e+00 0.000000e+00 1.000000e+00
    outer loop
      vertex -2.349230e+00 8.550518e-01 1.000000e+01
      vertex -2.165060e+00 1.250001e+00 1.000000e+01
      vertex -1.000000e+01 5.773504e+00 1.000000e+01
    endloop
  endfacet
  facet normal 0.000000e+00 0.000000e+00 1.000000e+00
    outer loop
      vertex -8.550491e-01 2.349233e+00 1.000000e+01
      vertex -4.341202e-01 2.462020e+00 1.000000e+01
      vertex 0.000000e+00 1.154701e+01 1.000000e+01
    endloop
  endfacet
  facet normal 0.000000e+00 0.000000e+00 1.000000e+00
    outer loop
      vertex 0.000000e+00 1.154701e+01 1.000000e+01
      vertex -4.341202e-01 2.462020e+00 1.000000e+01
      vertex 0.000000e+00 2.500002e+00 1.000000e+01
    endloop
  endfacet
  facet normal 0.000000e+00 0.000000e+00 1.000000e+00
    outer loop
      vertex 0.000000e+00 1.154701e+01 1.000000e+01
      vertex 0.000000e+00 2.500002e+00 1.000000e+01
      vertex 4.341202e-01 2.462020e+00 1.000000e+01
    endloop
  endfacet
  facet normal 0.000000e+00 0.000000e+00 1.000000e+00
    outer loop
      vertex 4.341202e-01 2.462020e+00 1.000000e+01
      vertex 8.550510e-01 2.349233e+00 1.000000e+01
      vertex 0.000000e+00 1.154701e+01 1.000000e+01
    endloop
  endfacet
  facet normal 0.000000e+00 0.000000e+00 1.000000e+00
    outer loop
      vertex 0.000000e+00 1.154701e+01 1.000000e+01
      vertex 8.550510e-01 2.349233e+00 1.000000e+01
      vertex 1.250000e+00 2.165064e+00 1.000000e+01
    endloop
  endfacet
  facet normal 0.000000e+00 0.000000e+00 1.000000e+00
    outer loop
      vertex 0.000000e+00 1.154701e+01 1.000000e+01
      vertex 1.250000e+00 2.165064e+00 1.000000e+01
      vertex 1.000000e+01 5.773504e+00 1.000000e+01
    endloop
  endfacet
  facet normal 0.000000e+00 0.000000e+00 1.000000e+00
    outer loop
      vertex 1.000000e+01 5.773504e+00 1.000000e+01
      vertex 1.250000e+00 2.165064e+00 1.000000e+01
      vertex 1.606970e+00 1.915113e+00 1.000000e+01
    endloop
  endfacet
  facet normal 0.000000e+00 0.000000e+00 1.000000e+00
    outer loop
      vertex 1.000000e+01 5.773504e+00 1.000000e+01
      vertex 1.606970e+00 1.915113e+00 1.000000e+01
      vertex 1.915110e+00 1.606970e+00 1.000000e+01
    endloop
  endfacet
  facet normal 0.000000e+00 0.000000e+00 1.000000e+00
    outer loop
      vertex 2.349230e+00 -8.550491e-01 1.000000e+01
      vertex 2.165060e+00 -1.249999e+00 1.000000e+01
      vertex 1.000000e+01 -5.773501e+00 1.000000e+01
    endloop
  endfacet
  facet normal 0.000000e+00 0.000000e+00 1.000000e+00
    outer loop
      vertex 1.000000e+01 -5.773501e+00 1.000000e+01
      vertex 2.165060e+00 -1.249999e+00 1.000000e+01
      vertex 1.915110e+00 -1.606968e+00 1.000000e+01
    endloop
  endfacet
  facet normal 0.000000e+00 0.000000e+00 1.000000e+00
    outer loop
      vertex 2.349230e+00 8.550518e-01 1.000000e+01
      vertex 2.462021e+00 4.341216e-01 1.000000e+01
      vertex 1.000000e+01 5.773504e+00 1.000000e+01
    endloop
  endfacet
  facet normal 0.000000e+00 0.000000e+00 1.000000e+00
    outer loop
      vertex 1.000000e+01 5.773504e+00 1.000000e+01
      vertex 2.462021e+00 4.341216e-01 1.000000e+01
      vertex 2.500000e+00 7.152557e-07 1.000000e+01
    endloop
  endfacet
  facet normal 0.000000e+00 0.000000e+00 1.000000e+00
    outer loop
      vertex 1.000000e+01 5.773504e+00 1.000000e+01
      vertex 2.500000e+00 7.152557e-07 1.000000e+01
      vertex 1.000000e+01 -5.773501e+00 1.000000e+01
    endloop
  endfacet
  facet normal 0.000000e+00 0.000000e+00 1.000000e+00
    outer loop
      vertex 1.000000e+01 -5.773501e+00 1.000000e+01
      vertex 2.500000e+00 7.152557e-07 1.000000e+01
      vertex 2.462021e+00 -4.341192e-01 1.000000e+01
    endloop
  endfacet
  facet normal 0.000000e+00 0.000000e+00 1.000000e+00
    outer loop
      vertex 1.000000e+01 -5.773501e+00 1.000000e+01
      vertex 2.462021e+00 -4.341192e-01 1.000000e+01
      vertex 2.349230e+00 -8.550491e-01 1.000000e+01
    endloop
  endfacet
  facet normal 0.000000e+00 0.000000e+00 1.000000e+00
    outer loop
      vertex 8.550510e-01 -2.349231e+00 1.000000e+01
      vertex 0.000000e+00 -1.154701e+01 1.000000e+01
      vertex 1.250000e+00 -2.165061e+00 1.000000e+01
    endloop
  endfacet
  facet normal 0.000000e+00 0.000000e+00 1.000000e+00
    outer loop
      vertex 1.250000e+00 -2.165061e+00 1.000000e+01
      vertex 0.000000e+00 -1.154701e+01 1.000000e+01
      vertex 1.000000e+01 -5.773501e+00 1.000000e+01
    endloop
  endfacet
  facet normal 0.000000e+00 0.000000e+00 1.000000e+00
    outer loop
      vertex 1.250000e+00 -2.165061e+00 1.000000e+01
      vertex 1.000000e+01 -5.773501e+00 1.000000e+01
      vertex 1.606970e+00 -1.915111e+00 1.000000e+01
    endloop
  endfacet
  facet normal 0.000000e+00 0.000000e+00 1.000000e+00
    outer loop
      vertex 1.606970e+00 -1.915111e+00 1.000000e+01
      vertex 1.000000e+01 -5.773501e+00 1.000000e+01
      vertex 1.915110e+00 -1.606968e+00 1.000000e+01
    endloop
  endfacet
  facet normal 0.000000e+00 0.000000e+00 1.000000e+00
    outer loop
      vertex -2.349230e+00 -8.550491e-01 1.000000e+01
      vertex -2.462019e+00 -4.341192e-01 1.000000e+01
      vertex -1.000000e+01 -5.773501e+00 1.000000e+01
    endloop
  endfacet
  facet normal 0.000000e+00 0.000000e+00 1.000000e+00
    outer loop
      vertex -1.000000e+01 -5.773501e+00 1.000000e+01
      vertex -2.462019e+00 -4.341192e-01 1.000000e+01
      vertex -2.500000e+00 7.152557e-07 1.000000e+01
    endloop
  endfacet
  facet normal 0.000000e+00 0.000000e+00 1.000000e+00
    outer loop
      vertex -1.000000e+01 -5.773501e+00 1.000000e+01
      vertex -2.500000e+00 7.152557e-07 1.000000e+01
      vertex -1.000000e+01 5.773504e+00 1.000000e+01
    endloop
  endfacet
  facet normal 0.000000e+00 0.000000e+00 1.000000e+00
    outer loop
      vertex -1.000000e+01 5.773504e+00 1.000000e+01
      vertex -2.500000e+00 7.152557e-07 1.000000e+01
      vertex -2.462019e+00 4.341216e-01 1.000000e+01
    endloop
  endfacet
  facet normal 0.000000e+00 0.000000e+00 1.000000e+00
    outer loop
      vertex -1.000000e+01 5.773504e+00 1.000000e+01
      vertex -2.462019e+00 4.341216e-01 1.000000e+01
      vertex -2.349230e+00 8.550518e-01 1.000000e+01
    endloop
  endfacet
  facet normal 0.000000e+00 0.000000e+00 1.000000e+00
    outer loop
      vertex -2.165060e+00 1.250001e+00 1.000000e+01
      vertex -1.915110e+00 1.606970e+00 1.000000e+01
      vertex -1.000000e+01 5.773504e+00 1.000000e+01
    endloop
  endfacet
  facet normal 0.000000e+00 0.000000e+00 1.000000e+00
    outer loop
      vertex -1.000000e+01 5.773504e+00 1.000000e+01
      vertex -1.915110e+00 1.606970e+00 1.000000e+01
      vertex -1.606970e+00 1.915113e+00 1.000000e+01
    endloop
  endfacet
  facet normal 0.000000e+00 0.000000e+00 1.000000e+00
    outer loop
      vertex -1.000000e+01 5.773504e+00 1.000000e+01
      vertex -1.606970e+00 1.915113e+00 1.000000e+01
      vertex 0.000000e+00 1.154701e+01 1.000000e+01
    endloop
  endfacet
  facet normal 0.000000e+00 0.000000e+00 1.000000e+00
    outer loop
      vertex 0.000000e+00 1.154701e+01 1.000000e+01
      vertex -1.606970e+00 1.915113e+00 1.000000e+01
      vertex -1.250000e+00 2.165064e+00 1.000000e+01
    endloop
  endfacet
  facet normal 0.000000e+00 0.000000e+00 1.000000e+00
    outer loop
      vertex 0.000000e+00 1.154701e+01 1.000000e+01
      vertex -1.250000e+00 2.165064e+00 1.000000e+01
      vertex -8.550491e-01 2.349233e+00 1.000000e+01
    endloop
  endfacet
  facet normal 0.000000e+00 0.000000e+00 1.000000e+00
    outer loop
      vertex 8.550510e-01 -2.349231e+00 1.000000e+01
      vertex 4.341202e-01 -2.462018e+00 1.000000e+01
      vertex 0.000000e+00 -1.154701e+01 1.000000e+01
    endloop
  endfacet
  facet normal 0.000000e+00 0.000000e+00 1.000000e+00
    outer loop
      vertex 0.000000e+00 -1.154701e+01 1.000000e+01
      vertex 4.341202e-01 -2.462018e+00 1.000000e+01
      vertex 0.000000e+00 -2.499999e+00 1.000000e+01
    endloop
  endfacet
  facet normal 0.000000e+00 0.000000e+00 1.000000e+00
    outer loop
      vertex 0.000000e+00 -1.154701e+01 1.000000e+01
      vertex 0.000000e+00 -2.499999e+00 1.000000e+01
      vertex -4.341202e-01 -2.462018e+00 1.000000e+01
    endloop
  endfacet
  facet normal 0.000000e+00 0.000000e+00 1.000000e+00
    outer loop
      vertex -4.341202e-01 -2.462018e+00 1.000000e+01
      vertex -8.550491e-01 -2.349231e+00 1.000000e+01
      vertex 0.000000e+00 -1.154701e+01 1.000000e+01
    endloop
  endfacet
  facet normal 0.000000e+00 0.000000e+00 1.000000e+00
    outer loop
      vertex 0.000000e+00 -1.154701e+01 1.000000e+01
      vertex -8.550491e-01 -2.349231e+00 1.000000e+01
      vertex -1.250000e+00 -2.165061e+00 1.000000e+01
    endloop
  endfacet
  facet normal 0.000000e+00 0.000000e+00 1.000000e+00
    outer loop
      vertex 0.000000e+00 -1.154701e+01 1.000000e+01
      vertex -1.250000e+00 -2.165061e+00 1.000000e+01
      vertex -1.000000e+01 -5.773501e+00 1.000000e+01
    endloop
  endfacet
  facet normal 0.000000e+00 0.000000e+00 1.000000e+00
    outer loop
      vertex -1.000000e+01 -5.773501e+00 1.000000e+01
      vertex -1.250000e+00 -2.165061e+00 1.000000e+01
      vertex -1.606970e+00 -1.915111e+00 1.000000e+01
    endloop
  endfacet
  facet normal 0.000000e+00 0.000000e+00 1.000000e+00
    outer loop
      vertex -1.000000e+01 -5.773501e+00 1.000000e+01
      vertex -1.606970e+00 -1.915111e+00 1.000000e+01
      vertex -1.915110e+00 -1.606968e+00 1.000000e+01
    endloop
  endfacet
  facet normal 0.000000e+00 0.000000e+00 -1.000000e+00
    outer loop
      vertex -1.915110e+00 1.606970e+00 3.469447e-15
      vertex -2.165060e+00 1.250001e+00 3.469447e-15
      vertex -1.000000e+01 5.773504e+00 3.469447e-15
    endloop
  endfacet
  facet normal 0.000000e+00 0.000000e+00 -1.000000e+00
    outer loop
      vertex -2.462019e+00 -4.341192e-01 3.469447e-15
      vertex -2.349230e+00 -8.550491e-01 3.469447e-15
      vertex -1.000000e+01 -5.773501e+00 3.469447e-15
    endloop
  endfacet
  facet normal 0.000000e+00 0.000000e+00 -1.000000e+00
    outer loop
      vertex -1.000000e+01 -5.773501e+00 3.469447e-15
      vertex -2.349230e+00 -8.550491e-01 3.469447e-15
      vertex -2.165060e+00 -1.249999e+00 3.469447e-15
    endloop
  endfacet
  facet normal 0.000000e+00 0.000000e+00 -1.000000e+00
    outer loop
      vertex -2.165060e+00 1.250001e+00 3.469447e-15
      vertex -2.349230e+00 8.550518e-01 3.469447e-15
      vertex -1.000000e+01 5.773504e+00 3.469447e-15
    endloop
  endfacet
  facet normal 0.000000e+00 0.000000e+00 -1.000000e+00
    outer loop
      vertex -1.000000e+01 5.773504e+00 3.469447e-15
      vertex -2.349230e+00 8.550518e-01 3.469447e-15
      vertex -2.462019e+00 4.341216e-01 3.469447e-15
    endloop
  endfacet
  facet normal 0.000000e+00 0.000000e+00 -1.000000e+00
    outer loop
      vertex -1.000000e+01 5.773504e+00 3.469447e-15
      vertex -2.462019e+00 4.341216e-01 3.469447e-15
      vertex -1.000000e+01 -5.773501e+00 3.469447e-15
    endloop
  endfacet
  facet normal 0.000000e+00 0.000000e+00 -1.000000e+00
    outer loop
      vertex -1.000000e+01 -5.773501e+00 3.469447e-15
      vertex -2.462019e+00 4.341216e-01 3.469447e-15
      vertex -2.500000e+00 7.152557e-07 3.469447e-15
    endloop
  endfacet
  facet normal 0.000000e+00 0.000000e+00 -1.000000e+00
    outer loop
      vertex -1.000000e+01 -5.773501e+00 3.469447e-15
      vertex -2.500000e+00 7.152557e-07 3.469447e-15
      vertex -2.462019e+00 -4.341192e-01 3.469447e-15
    endloop
  endfacet
  facet normal 0.000000e+00 0.000000e+00 -1.000000e+00
    outer loop
      vertex 2.349230e+00 8.550518e-01 3.469447e-15
      vertex 2.165060e+00 1.250001e+00 3.469447e-15
      vertex 1.000000e+01 5.773504e+00 3.469447e-15
    endloop
  endfacet
  facet normal 0.000000e+00 0.000000e+00 -1.000000e+00
    outer loop
      vertex 8.550510e-01 2.349233e+00 3.469447e-15
      vertex 4.341202e-01 2.462020e+00 3.469447e-15
      vertex 0.000000e+00 1.154701e+01 3.469447e-15
    endloop
  endfacet
  facet normal 0.000000e+00 0.000000e+00 -1.000000e+00
    outer loop
      vertex 0.000000e+00 1.154701e+01 3.469447e-15
      vertex 4.341202e-01 2.462020e+00 3.469447e-15
      vertex 0.000000e+00 2.500002e+00 3.469447e-15
    endloop
  endfacet
  facet normal 0.000000e+00 0.000000e+00 -1.000000e+00
    outer loop
      vertex 0.000000e+00 1.154701e+01 3.469447e-15
      vertex 0.000000e+00 2.500002e+00 3.469447e-15
      vertex -4.341202e-01 2.462020e+00 3.469447e-15
    endloop
  endfacet
  facet normal 0.000000e+00 0.000000e+00 -1.000000e+00
    outer loop
      vertex -4.341202e-01 2.462020e+00 3.469447e-15
      vertex -8.550491e-01 2.349233e+00 3.469447e-15
      vertex 0.000000e+00 1.154701e+01 3.469447e-15
    endloop
  endfacet
  facet normal 0.000000e+00 0.000000e+00 -1.000000e+00
    outer loop
      vertex 0.000000e+00 1.154701e+01 3.469447e-15
      vertex -8.550491e-01 2.349233e+00 3.469447e-15
      vertex -1.250000e+00 2.165064e+00 3.469447e-15
    endloop
  endfacet
  facet normal 0.000000e+00 0.000000e+00 -1.000000e+00
    outer loop
      vertex 0.000000e+00 1.154701e+01 3.469447e-15
      vertex -1.250000e+00 2.165064e+00 3.469447e-15
      vertex -1.000000e+01 5.773504e+00 3.469447e-15
    endloop
  endfacet
  facet normal 0.000000e+00 0.000000e+00 -1.000000e+00
    outer loop
      vertex -1.000000e+01 5.773504e+00 3.469447e-15
      vertex -1.250000e+00 2.165064e+00 3.469447e-15
      vertex -1.606970e+00 1.915113e+00 3.469447e-15
    endloop
  endfacet
  facet normal 0.000000e+00 0.000000e+00 -1.000000e+00
    outer loop
      vertex -1.000000e+01 5.773504e+00 3.469447e-15
      vertex -1.606970e+00 1.915113e+00 3.469447e-15
      vertex -1.915110e+00 1.606970e+00 3.469447e-15
    endloop
  endfacet
  facet normal 0.000000e+00 0.000000e+00 -1.000000e+00
    outer loop
      vertex 2.165060e+00 1.250001e+00 3.469447e-15
      vertex 1.915110e+00 1.606970e+00 3.469447e-15
      vertex 1.000000e+01 5.773504e+00 3.469447e-15
    endloop
  endfacet
  facet normal 0.000000e+00 0.000000e+00 -1.000000e+00
    outer loop
      vertex 1.000000e+01 5.773504e+00 3.469447e-15
      vertex 1.915110e+00 1.606970e+00 3.469447e-15
      vertex 1.606970e+00 1.915113e+00 3.469447e-15
    endloop
  endfacet
  facet normal 0.000000e+00 0.000000e+00 -1.000000e+00
    outer loop
      vertex 1.000000e+01 5.773504e+00 3.469447e-15
      vertex 1.606970e+00 1.915113e+00 3.469447e-15
      vertex 0.000000e+00 1.154701e+01 3.469447e-15
    endloop
  endfacet
  facet normal 0.000000e+00 0.000000e+00 -1.000000e+00
    outer loop
      vertex 0.000000e+00 1.154701e+01 3.469447e-15
      vertex 1.606970e+00 1.915113e+00 3.469447e-15
      vertex 1.250000e+00 2.165064e+00 3.469447e-15
    endloop
  endfacet
  facet normal 0.000000e+00 0.000000e+00 -1.000000e+00
    outer loop
      vertex 0.000000e+00 1.154701e+01 3.469447e-15
      vertex 1.250000e+00 2.165064e+00 3.469447e-15
      vertex 8.550510e-01 2.349233e+00 3.469447e-15
    endloop
  endfacet
  facet normal 0.000000e+00 0.000000e+00 -1.000000e+00
    outer loop
      vertex -1.250000e+00 -2.165061e+00 3.469447e-15
      vertex 0.000000e+00 -1.154701e+01 3.469447e-15
      vertex -1.606970e+00 -1.915111e+00 3.469447e-15
    endloop
  endfacet
  facet normal 0.000000e+00 0.000000e+00 -1.000000e+00
    outer loop
      vertex -1.606970e+00 -1.915111e+00 3.469447e-15
      vertex 0.000000e+00 -1.154701e+01 3.469447e-15
      vertex -1.000000e+01 -5.773501e+00 3.469447e-15
    endloop
  endfacet
  facet normal 0.000000e+00 0.000000e+00 -1.000000e+00
    outer loop
      vertex -1.606970e+00 -1.915111e+00 3.469447e-15
      vertex -1.000000e+01 -5.773501e+00 3.469447e-15
      vertex -1.915110e+00 -1.606968e+00 3.469447e-15
    endloop
  endfacet
  facet normal 0.000000e+00 0.000000e+00 -1.000000e+00
    outer loop
      vertex -1.915110e+00 -1.606968e+00 3.469447e-15
      vertex -1.000000e+01 -5.773501e+00 3.469447e-15
      vertex -2.165060e+00 -1.249999e+00 3.469447e-15
    endloop
  endfacet
  facet normal 0.000000e+00 0.000000e+00 -1.000000e+00
    outer loop
      vertex 1.606970e+00 -1.915111e+00 3.469447e-15
      vertex 1.915110e+00 -1.606968e+00 3.469447e-15
      vertex 1.000000e+01 -5.773501e+00 3.469447e-15
    endloop
  endfacet
  facet normal 0.000000e+00 0.000000e+00 -1.000000e+00
    outer loop
      vertex 1.000000e+01 -5.773501e+00 3.469447e-15
      vertex 1.915110e+00 -1.606968e+00 3.469447e-15
      vertex 2.165060e+00 -1.249999e+00 3.469447e-15
    endloop
  endfacet
  facet normal 0.000000e+00 0.000000e+00 -1.000000e+00
    outer loop
      vertex 1.000000e+01 -5.773501e+00 3.469447e-15
      vertex 2.165060e+00 -1.249999e+00 3.469447e-15
      vertex 2.349230e+00 -8.550491e-01 3.469447e-15
    endloop
  endfacet
  facet normal 0.000000e+00 0.000000e+00 -1.000000e+00
    outer loop
      vertex -1.250000e+00 -2.165061e+00 3.469447e-15
      vertex -8.550491e-01 -2.349231e+00 3.469447e-15
      vertex 0.000000e+00 -1.154701e+01 3.469447e-15
    endloop
  endfacet
  facet normal 0.000000e+00 0.000000e+00 -1.000000e+00
    outer loop
      vertex 0.000000e+00 -1.154701e+01 3.469447e-15
      vertex -8.550491e-01 -2.349231e+00 3.469447e-15
      vertex -4.341202e-01 -2.462018e+00 3.469447e-15
    endloop
  endfacet
  facet normal 0.000000e+00 0.000000e+00 -1.000000e+00
    outer loop
      vertex 0.000000e+00 -1.154701e+01 3.469447e-15
      vertex -4.341202e-01 -2.462018e+00 3.469447e-15
      vertex 0.000000e+00 -2.499999e+00 3.469447e-15
    endloop
  endfacet
  facet normal 0.000000e+00 0.000000e+00 -1.000000e+00
    outer loop
      vertex 2.349230e+00 -8.550491e-01 3.469447e-15
      vertex 2.462021e+00 -4.341192e-01 3.469447e-15
      vertex 1.000000e+01 -5.773501e+00 3.469447e-15
    endloop
  endfacet
  facet normal 0.000000e+00 0.000000e+00 -1.000000e+00
    outer loop
      vertex 1.000000e+01 -5.773501e+00 3.469447e-15
      vertex 2.462021e+00 -4.341192e-01 3.469447e-15
      vertex 2.500000e+00 7.152557e-07 3.469447e-15
    endloop
  endfacet
  facet normal 0.000000e+00 0.000000e+00 -1.000000e+00
    outer loop
      vertex 1.000000e+01 -5.773501e+00 3.469447e-15
      vertex 2.500000e+00 7.152557e-07 3.469447e-15
      vertex 1.000000e+01 5.773504e+00 3.469447e-15
    endloop
  endfacet
  facet normal 0.000000e+00 0.000000e+00 -1.000000e+00
    outer loop
      vertex 1.000000e+01 5.773504e+00 3.469447e-15
      vertex 2.500000e+00 7.152557e-07 3.469447e-15
      vertex 2.462021e+00 4.341216e-01 3.469447e-15
    endloop
  endfacet
  facet normal 0.000000e+00 0.000000e+00 -1.000000e+00
    outer loop
      vertex 1.000000e+01 5.773504e+00 3.469447e-15
      vertex 2.462021e+00 4.341216e-01 3.469447e-15
      vertex 2.349230e+00 8.550518e-01 3.469447e-15
    endloop
  endfacet
  facet normal 0.000000e+00 0.000000e+00 -1.000000e+00
    outer loop
      vertex 0.000000e+00 -2.499999e+00 3.469447e-15
      vertex 4.341202e-01 -2.462018e+00 3.469447e-15
      vertex 0.000000e+00 -1.154701e+01 3.469447e-15
    endloop
  endfacet
  facet normal 0.000000e+00 0.000000e+00 -1.000000e+00
    outer loop
      vertex 0.000000e+00 -1.154701e+01 3.469447e-15
      vertex 4.341202e-01 -2.462018e+00 3.469447e-15
      vertex 8.550510e-01 -2.349231e+00 3.469447e-15
    endloop
  endfacet
  facet normal 0.000000e+00 0.000000e+00 -1.000000e+00
    outer loop
      vertex 0.000000e+00 -1.154701e+01 3.469447e-15
      vertex 8.550510e-01 -2.349231e+00 3.469447e-15
      vertex 1.000000e+01 -5.773501e+00 3.469447e-15
    endloop
  endfacet
  facet normal 0.000000e+00 0.000000e+00 -1.000000e+00
    outer loop
      vertex 1.000000e+01 -5.773501e+00 3.469447e-15
      vertex 8.550510e-01 -2.349231e+00 3.469447e-15
      vertex 1.250000e+00 -2.165061e+00 3.469447e-15
    endloop
  endfacet
  facet normal 0.000000e+00 0.000000e+00 -1.000000e+00
    outer loop
      vertex 1.000000e+01 -5.773501e+00 3.469447e-15
      vertex 1.250000e+00 -2.165061e+00 3.469447e-15
      vertex 1.606970e+00 -1.915111e+00 3.469447e-15
    endloop
  endfacet
  facet normal 5.000000e-01 -8.660254e-01 0.000000e+00
    outer loop
      vertex 1.000000e+01 -5.773501e+00 1.000000e+01
      vertex 0.000000e+00 -1.154701e+01 1.000000e+01
      vertex 1.000000e+01 -5.773501e+00 3.469447e-15
    endloop
  endfacet
  facet normal 5.000000e-01 -8.660254e-01 0.000000e+00
    outer loop
      vertex 1.000000e+01 -5.773501e+00 3.469447e-15
      vertex 0.000000e+00 -1.154701e+01 1.000000e+01
      vertex 0.000000e+00 -1.154701e+01 3.469447e-15
    endloop
  endfacet
  facet normal 1.000000e+00 1.502315e-16 0.000000e+00
    outer loop
      vertex 1.000000e+01 5.773504e+00 1.000000e+01
      vertex 1.000000e+01 -5.773501e+00 1.000000e+01
      vertex 1.000000e+01 5.773504e+00 3.469447e-15
    endloop
  endfacet
  facet normal 1.000000e+00 1.502315e-16 0.000000e+00
    outer loop
      vertex 1.000000e+01 5.773504e+00 3.469447e-15
      vertex 1.000000e+01 -5.773501e+00 1.000000e+01
      vertex 1.000000e+01 -5.773501e+00 3.469447e-15
    endloop
  endfacet
  facet normal 5.000000e-01 8.660254e-01 0.000000e+00
    outer loop
      vertex 0.000000e+00 1.154701e+01 1.000000e+01
      vertex 1.000000e+01 5.773504e+00 1.000000e+01
      vertex 0.000000e+00 1.154701e+01 3.469447e-15
    endloop
  endfacet
  facet normal 5.000000e-01 8.660254e-01 0.000000e+00
    outer loop
      vertex 0.000000e+00 1.154701e+01 3.469447e-15
      vertex 1.000000e+01 5.773504e+00 1.000000e+01
      vertex 1.000000e+01 5.773504e+00 3.469447e-15
    endloop
  endfacet
  facet normal -5.000000e-01 8.660254e-01 0.000000e+00
    outer loop
      vertex -1.000000e+01 5.773504e+00 1.000000e+01
      vertex 0.000000e+00 1.154701e+01 1.000000e+01
      vertex -1.000000e+01 5.773504e+00 0.000000e+00
    endloop
  endfacet
  facet normal -5.000000e-01 8.660254e-01 0.000000e+00
    outer loop
      vertex -1.000000e+01 5.773504e+00 0.000000e+00
      vertex 0.000000e+00 1.154701e+01 1.000000e+01
      vertex 0.000000e+00 1.154701e+01 0.000000e+00
    endloop
  endfacet
  facet normal -1.000000e+00 1.502315e-16 0.000000e+00
    outer loop
      vertex -1.000000e+01 -5.773501e+00 1.000000e+01
      vertex -1.000000e+01 5.773504e+00 1.000000e+01
      vertex -1.000000e+01 -5.773501e+00 3.469447e-15
    endloop
  endfacet
  facet normal -1.000000e+00 1.502315e-16 0.000000e+00
    outer loop
      vertex -1.000000e+01 -5.773501e+00 3.469447e-15
      vertex -1.000000e+01 5.773504e+00 1.000000e+01
      vertex -1.000000e+01 5.773504e+00 3.469447e-15
    endloop
  endfacet
  facet normal -5.000000e-01 -8.660254e-01 0.000000e+00
    outer loop
      vertex 0.000000e+00 -1.154701e+01 1.000000e+01
      vertex -1.000000e+01 -5.773501e+00 1.000000e+01
      vertex 0.000000e+00 -1.154701e+01 3.469447e-15
    endloop
  endfacet
  facet normal -5.000000e-01 -8.660254e-01 0.000000e+00
    outer loop
      vertex 0.000000e+00 -1.154701e+01 3.469447e-15
      vertex -1.000000e+01 -5.773501e+00 1.000000e+01
      vertex -1.000000e+01 -5.773501e+00 3.469447e-15
    endloop
  endfacet
  facet normal 9.983120e-01 5.807914e-02 0.000000e+00
    outer loop
      vertex -2.462019e+00 -4.341192e-01 1.000000e+01
      vertex -2.500000e+00 7.152557e-07 3.469447e-15
      vertex -2.500000e+00 7.152557e-07 1.000000e+01
    endloop
  endfacet
  facet normal 9.983120e-01 -5.807914e-02 0.000000e+00
    outer loop
      vertex -2.500000e+00 7.152557e-07 1.000000e+01
      vertex -2.500000e+00 7.152557e-07 3.469447e-15
      vertex -2.462019e+00 4.341216e-01 3.469447e-15
    endloop
  endfacet
  facet normal 9.932307e-01 -1.161583e-01 0.000000e+00
    outer loop
      vertex -2.500000e+00 7.152557e-07 1.000000e+01
      vertex -2.462019e+00 4.341216e-01 3.469447e-15
      vertex -2.462019e+00 4.341216e-01 1.000000e+01
    endloop
  endfacet
  facet normal 9.730600e-01 -2.305519e-01 0.000000e+00
    outer loop
      vertex -2.462019e+00 4.341216e-01 1.000000e+01
      vertex -2.462019e+00 4.341216e-01 3.469447e-15
      vertex -2.349230e+00 8.550518e-01 3.469447e-15
    endloop
  endfacet
  facet normal 9.579706e-01 -2.868663e-01 0.000000e+00
    outer loop
      vertex -2.462019e+00 4.341216e-01 1.000000e+01
      vertex -2.349230e+00 8.550518e-01 3.469447e-15
      vertex -2.349230e+00 8.550518e-01 1.000000e+01
    endloop
  endfacet
  facet normal 9.182422e-01 -3.960194e-01 0.000000e+00
    outer loop
      vertex -2.349230e+00 8.550518e-01 1.000000e+01
      vertex -2.349230e+00 8.550518e-01 3.469447e-15
      vertex -2.165060e+00 1.250001e+00 3.469447e-15
    endloop
  endfacet
  facet normal 8.936031e-01 -4.488580e-01 0.000000e+00
    outer loop
      vertex -2.349230e+00 8.550518e-01 1.000000e+01
      vertex -2.165060e+00 1.250001e+00 3.469447e-15
      vertex -2.165060e+00 1.250001e+00 1.000000e+01
    endloop
  endfacet
  facet normal 8.355240e-01 -5.494540e-01 0.000000e+00
    outer loop
      vertex -2.165060e+00 1.250001e+00 1.000000e+01
      vertex -2.165060e+00 1.250001e+00 3.469447e-15
      vertex -1.915110e+00 1.606970e+00 3.469447e-15
    endloop
  endfacet
  facet normal 8.020838e-01 -5.972114e-01 0.000000e+00
    outer loop
      vertex -2.165060e+00 1.250001e+00 1.000000e+01
      vertex -1.915110e+00 1.606970e+00 3.469447e-15
      vertex -1.915110e+00 1.606970e+00 1.000000e+01
    endloop
  endfacet
  facet normal 7.274188e-01 -6.861938e-01 0.000000e+00
    outer loop
      vertex -1.915110e+00 1.606970e+00 1.000000e+01
      vertex -1.915110e+00 1.606970e+00 3.469447e-15
      vertex -1.606970e+00 1.915113e+00 3.469447e-15
    endloop
  endfacet
  facet normal 6.861938e-01 -7.274188e-01 0.000000e+00
    outer loop
      vertex -1.915110e+00 1.606970e+00 1.000000e+01
      vertex -1.606970e+00 1.915113e+00 3.469447e-15
      vertex -1.606970e+00 1.915113e+00 1.000000e+01
    endloop
  endfacet
  facet normal 5.972114e-01 -8.020838e-01 0.000000e+00
    outer loop
      vertex -1.606970e+00 1.915113e+00 1.000000e+01
      vertex -1.606970e+00 1.915113e+00 3.469447e-15
      vertex -1.250000e+00 2.165064e+00 3.469447e-15
    endloop
  endfacet
  facet normal 5.494540e-01 -8.355240e-01 0.000000e+00
    outer loop
      vertex -1.606970e+00 1.915113e+00 1.000000e+01
      vertex -1.250000e+00 2.165064e+00 3.469447e-15
      vertex -1.250000e+00 2.165064e+00 1.000000e+01
    endloop
  endfacet
  facet normal 4.488580e-01 -8.936031e-01 0.000000e+00
    outer loop
      vertex -1.250000e+00 2.165064e+00 1.000000e+01
      vertex -1.250000e+00 2.165064e+00 3.469447e-15
      vertex -8.550491e-01 2.349233e+00 3.469447e-15
    endloop
  endfacet
  facet normal 3.960194e-01 -9.182422e-01 0.000000e+00
    outer loop
      vertex -1.250000e+00 2.165064e+00 1.000000e+01
      vertex -8.550491e-01 2.349233e+00 3.469447e-15
      vertex -8.550491e-01 2.349233e+00 1.000000e+01
    endloop
  endfacet
  facet normal 2.868663e-01 -9.579706e-01 0.000000e+00
    outer loop
      vertex -8.550491e-01 2.349233e+00 1.000000e+01
      vertex -8.550491e-01 2.349233e+00 3.469447e-15
      vertex -4.341202e-01 2.462020e+00 3.469447e-15
    endloop
  endfacet
  facet normal 2.305519e-01 -9.730600e-01 0.000000e+00
    outer loop
      vertex -8.550491e-01 2.349233e+00 1.000000e+01
      vertex -4.341202e-01 2.462020e+00 3.469447e-15
      vertex -4.341202e-01 2.462020e+00 1.000000e+01
    endloop
  endfacet
  facet normal 1.161583e-01 -9.932307e-01 0.000000e+00
    outer loop
      vertex -4.341202e-01 2.462020e+00 1.000000e+01
      vertex -4.341202e-01 2.462020e+00 3.469447e-15
      vertex 0.000000e+00 2.500002e+00 3.469447e-15
    endloop
  endfacet
  facet normal 5.807914e-02 -9.983120e-01 0.000000e+00
    outer loop
      vertex -4.341202e-01 2.462020e+00 1.000000e+01
      vertex 0.000000e+00 2.500002e+00 3.469447e-15
      vertex 0.000000e+00 2.500002e+00 1.000000e+01
    endloop
  endfacet
  facet normal -5.807914e-02 -9.983120e-01 0.000000e+00
    outer loop
      vertex 0.000000e+00 2.500002e+00 1.000000e+01
      vertex 0.000000e+00 2.500002e+00 3.469447e-15
      vertex 4.341202e-01 2.462020e+00 3.469447e-15
    endloop
  endfacet
  facet normal -1.161583e-01 -9.932307e-01 0.000000e+00
    outer loop
      vertex 0.000000e+00 2.500002e+00 1.000000e+01
      vertex 4.341202e-01 2.462020e+00 3.469447e-15
      vertex 4.341202e-01 2.462020e+00 1.000000e+01
    endloop
  endfacet
  facet normal -2.305519e-01 -9.730600e-01 0.000000e+00
    outer loop
      vertex 4.341202e-01 2.462020e+00 1.000000e+01
      vertex 4.341202e-01 2.462020e+00 3.469447e-15
      vertex 8.550510e-01 2.349233e+00 3.469447e-15
    endloop
  endfacet
  facet normal -2.868663e-01 -9.579706e-01 0.000000e+00
    outer loop
      vertex 4.341202e-01 2.462020e+00 1.000000e+01
      vertex 8.550510e-01 2.349233e+00 3.469447e-15
      vertex 8.550510e-01 2.349233e+00 1.000000e+01
    endloop
  endfacet
  facet normal -3.960194e-01 -9.182422e-01 0.000000e+00
    outer loop
      vertex 8.550510e-01 2.349233e+00 1.000000e+01
      vertex 8.550510e-01 2.349233e+00 3.469447e-15
      vertex 1.250000e+00 2.165064e+00 3.469447e-15
    endloop
  endfacet
  facet normal -4.488580e-01 -8.936031e-01 0.000000e+00
    outer loop
      vertex 8.550510e-01 2.349233e+00 1.000000e+01
      vertex 1.250000e+00 2.165064e+00 3.469447e-15
      vertex 1.250000e+00 2.165064e+00 1.000000e+01
    endloop
  endfacet
  facet normal -5.494540e-01 -8.355240e-01 0.000000e+00
    outer loop
      vertex 1.250000e+00 2.165064e+00 1.000000e+01
      vertex 1.250000e+00 2.165064e+00 3.469447e-15
      vertex 1.606970e+00 1.915113e+00 3.469447e-15
    endloop
  endfacet
  facet normal -5.972114e-01 -8.020838e-01 0.000000e+00
    outer loop
      vertex 1.250000e+00 2.165064e+00 1.000000e+01
      vertex 1.606970e+00 1.915113e+00 3.469447e-15
      vertex 1.606970e+00 1.915113e+00 1.000000e+01
    endloop
  endfacet
  facet normal -6.861938e-01 -7.274188e-01 0.000000e+00
    outer loop
      vertex 1.606970e+00 1.915113e+00 1.000000e+01
      vertex 1.606970e+00 1.915113e+00 3.469447e-15
      vertex 1.915110e+00 1.606970e+00 3.469447e-15
    endloop
  endfacet
  facet normal -7.274188e-01 -6.861938e-01 0.000000e+00
    outer loop
      vertex 1.606970e+00 1.915113e+00 1.000000e+01
      vertex 1.915110e+00 1.606970e+00 3.469447e-15
      vertex 1.915110e+00 1.606970e+00 1.000000e+01
    endloop
  endfacet
  facet normal -8.020838e-01 -5.972114e-01 0.000000e+00
    outer loop
      vertex 1.915110e+00 1.606970e+00 1.000000e+01
      vertex 1.915110e+00 1.606970e+00 3.469447e-15
      vertex 2.165060e+00 1.250001e+00 3.469447e-15
    endloop
  endfacet
  facet normal -8.355240e-01 -5.494540e-01 0.000000e+00
    outer loop
      vertex 1.915110e+00 1.606970e+00 1.000000e+01
      vertex 2.165060e+00 1.250001e+00 3.469447e-15
      vertex 2.165060e+00 1.250001e+00 1.000000e+01
    endloop
  endfacet
  facet normal -8.936031e-01 -4.488580e-01 0.000000e+00
    outer loop
      vertex 2.165060e+00 1.250001e+00 1.000000e+01
      vertex 2.165060e+00 1.250001e+00 3.469447e-15
      vertex 2.349230e+00 8.550518e-01 3.469447e-15
    endloop
  endfacet
  facet normal -9.182422e-01 -3.960194e-01 0.000000e+00
    outer loop
      vertex 2.165060e+00 1.250001e+00 1.000000e+01
      vertex 2.349230e+00 8.550518e-01 3.469447e-15
      vertex 2.349230e+00 8.550518e-01 1.000000e+01
    endloop
  endfacet
  facet normal -9.579706e-01 -2.868663e-01 0.000000e+00
    outer loop
      vertex 2.349230e+00 8.550518e-01 1.000000e+01
      vertex 2.349230e+00 8.550518e-01 3.469447e-15
      vertex 2.462021e+00 4.341216e-01 3.469447e-15
    endloop
  endfacet
  facet normal -9.730600e-01 -2.305519e-01 0.000000e+00
    outer loop
      vertex 2.349230e+00 8.550518e-01 1.000000e+01
      vertex 2.462021e+00 4.341216e-01 3.469447e-15
      vertex 2.462021e+00 4.341216e-01 1.000000e+01
    endloop
  endfacet
  facet normal -9.932307e-01 -1.161583e-01 0.000000e+00
    outer loop
      vertex 2.462021e+00 4.341216e-01 1.000000e+01
      vertex 2.462021e+00 4.341216e-01 3.469447e-15
      vertex 2.500000e+00 7.152557e-07 3.469447e-15
    endloop
  endfacet
  facet normal -9.983120e-01 -5.807914e-02 0.000000e+00
    outer loop
      vertex 2.462021e+00 4.341216e-01 1.000000e+01
      vertex 2.500000e+00 7.152557e-07 3.469447e-15
      vertex 2.500000e+00 7.152557e-07 1.000000e+01
    endloop
  endfacet
  facet normal -9.983120e-01 5.807914e-02 0.000000e+00
    outer loop
      vertex 2.500000e+00 7.152557e-07 1.000000e+01
      vertex 2.500000e+00 7.152557e-07 3.469447e-15
      vertex 2.462021e+00 -4.341192e-01 3.469447e-15
    endloop
  endfacet
  facet normal -9.932307e-01 1.161583e-01 0.000000e+00
    outer loop
      vertex 2.500000e+00 7.152557e-07 1.000000e+01
      vertex 2.462021e+00 -4.341192e-01 3.469447e-15
      vertex 2.462021e+00 -4.341192e-01 1.000000e+01
    endloop
  endfacet
  facet normal -9.730600e-01 2.305519e-01 0.000000e+00
    outer loop
      vertex 2.462021e+00 -4.341192e-01 1.000000e+01
      vertex 2.462021e+00 -4.341192e-01 3.469447e-15
      vertex 2.349230e+00 -8.550491e-01 3.469447e-15
    endloop
  endfacet
  facet normal -9.579706e-01 2.868663e-01 0.000000e+00
    outer loop
      vertex 2.462021e+00 -4.341192e-01 1.000000e+01
      vertex 2.349230e+00 -8.550491e-01 3.469447e-15
      vertex 2.349230e+00 -8.550491e-01 1.000000e+01
    endloop
  endfacet
  facet normal -9.182422e-01 3.960194e-01 0.000000e+00
    outer loop
      vertex 2.349230e+00 -8.550491e-01 1.000000e+01
      vertex 2.349230e+00 -8.550491e-01 3.469447e-15
      vertex 2.165060e+00 -1.249999e+00 3.469447e-15
    endloop
  endfacet
  facet normal -8.936031e-01 4.488580e-01 0.000000e+00
    outer loop
      vertex 2.349230e+00 -8.550491e-01 1.000000e+01
      vertex 2.165060e+00 -1.249999e+00 3.469447e-15
      vertex 2.165060e+00 -1.249999e+00 1.000000e+01
    endloop
  endfacet
  facet normal -8.355240e-01 5.494540e-01 0.000000e+00
    outer loop
      vertex 2.165060e+00 -1.249999e+00 1.000000e+01
      vertex 2.165060e+00 -1.249999e+00 3.469447e-15
      vertex 1.915110e+00 -1.606968e+00 3.469447e-15
    endloop
  endfacet
  facet normal -8.020838e-01 5.972114e-01 0.000000e+00
    outer loop
      vertex 2.165060e+00 -1.249999e+00 1.000000e+01
      vertex 1.915110e+00 -1.606968e+00 3.469447e-15
      vertex 1.915110e+00 -1.606968e+00 1.000000e+01
    endloop
  endfacet
  facet normal -7.274188e-01 6.861938e-01 0.000000e+00
    outer loop
      vertex 1.915110e+00 -1.606968e+00 1.000000e+01
      vertex 1.915110e+00 -1.606968e+00 3.469447e-15
      vertex 1.606970e+00 -1.915111e+00 3.469447e-15
    endloop
  endfacet
  facet normal -6.861938e-01 7.274188e-01 0.000000e+00
    outer loop
      vertex 1.915110e+00 -1.606968e+00 1.000000e+01
      vertex 1.606970e+00 -1.915111e+00 3.469447e-15
      vertex 1.606970e+00 -1.915111e+00 1.000000e+01
    endloop
  endfacet
  facet normal -5.972114e-01 8.020838e-01 0.000000e+00
    outer loop
      vertex 1.606970e+00 -1.915111e+00 1.000000e+01
      vertex 1.606970e+00 -1.915111e+00 3.469447e-15
      vertex 1.250000e+00 -2.165061e+00 3.469447e-15
    endloop
  endfacet
  facet normal -5.494540e-01 8.355240e-01 0.000000e+00
    outer loop
      vertex 1.606970e+00 -1.915111e+00 1.000000e+01
      vertex 1.250000e+00 -2.165061e+00 3.469447e-15
      vertex 1.250000e+00 -2.165061e+00 1.000000e+01
    endloop
  endfacet
  facet normal -4.488580e-01 8.936031e-01 0.000000e+00
    outer loop
      vertex 1.250000e+00 -2.165061e+00 1.000000e+01
      vertex 1.250000e+00 -2.165061e+00 3.469447e-15
      vertex 8.550510e-01 -2.349231e+00 3.469447e-15
    endloop
  endfacet
  facet normal -3.960194e-01 9.182422e-01 0.000000e+00
    outer loop
      vertex 1.250000e+00 -2.165061e+00 1.000000e+01
      vertex 8.550510e-01 -2.349231e+00 3.469447e-15
      vertex 8.550510e-01 -2.349231e+00 1.000000e+01
    endloop
  endfacet
  facet normal -2.868663e-01 9.579706e-01 0.000000e+00
    outer loop
      vertex 8.550510e-01 -2.349231e+00 1.000000e+01
      vertex 8.550510e-01 -2.349231e+00 3.469447e-15
      vertex 4.341202e-01 -2.462018e+00 3.469447e-15
    endloop
  endfacet
  facet normal -2.305519e-01 9.730600e-01 0.000000e+00
    outer loop
      vertex 8.550510e-01 -2.349231e+00 1.000000e+01
      vertex 4.341202e-01 -2.462018e+00 3.469447e-15
      vertex 4.341202e-01 -2.462018e+00 1.000000e+01
    endloop
  endfacet
  facet normal -1.161583e-01 9.932307e-01 0.000000e+00
    outer loop
      vertex 4.341202e-01 -2.462018e+00 1.000000e+01
      vertex 4.341202e-01 -2.462018e+00 3.469447e-15
      vertex 0.000000e+00 -2.499999e+00 3.469447e-15
    endloop
  endfacet
  facet normal -5.807914e-02 9.983120e-01 0.000000e+00
    outer loop
      vertex 4.341202e-01 -2.462018e+00 1.000000e+01
      vertex 0.000000e+00 -2.499999e+00 3.469447e-15
      vertex 0.000000e+00 -2.499999e+00 1.000000e+01
    endloop
  endfacet
  facet normal 5.807914e-02 9.983120e-01 0.000000e+00
    outer loop
      vertex 0.000000e+00 -2.499999e+00 1.000000e+01
      vertex 0.000000e+00 -2.499999e+00 3.469447e-15
      vertex -4.341202e-01 -2.462018e+00 3.469447e-15
    endloop
  endfacet
  facet normal 1.161583e-01 9.932307e-01 0.000000e+00
    outer loop
      vertex 0.000000e+00 -2.499999e+00 1.000000e+01
      vertex -4.341202e-01 -2.462018e+00 3.469447e-15
      vertex -4.341202e-01 -2.462018e+00 1.000000e+01
    endloop
  endfacet
  facet normal 2.305519e-01 9.730600e-01 0.000000e+00
    outer loop
      vertex -4.341202e-01 -2.462018e+00 1.000000e+01
      vertex -4.341202e-01 -2.462018e+00 3.469447e-15
      vertex -8.550491e-01 -2.349231e+00 3.469447e-15
    endloop
  endfacet
  facet normal 2.868663e-01 9.579706e-01 0.000000e+00
    outer loop
      vertex -4.341202e-01 -2.462018e+00 1.000000e+01
      vertex -8.550491e-01 -2.349231e+00 3.469447e-15
      vertex -8.550491e-01 -2.349231e+00 1.000000e+01
    endloop
  endfacet
  facet normal 3.960194e-01 9.182422e-01 0.000000e+00
    outer loop
      vertex -8.550491e-01 -2.349231e+00 1.000000e+01
      vertex -8.550491e-01 -2.349231e+00 3.469447e-15
      vertex -1.250000e+00 -2.165061e+00 3.469447e-15
    endloop
  endfacet
  facet normal 4.488580e-01 8.936031e-01 0.000000e+00
    outer loop
      vertex -8.550491e-01 -2.349231e+00 1.000000e+01
      vertex -1.250000e+00 -2.165061e+00 3.469447e-15
      vertex -1.250000e+00 -2.165061e+00 1.000000e+01
    endloop
  endfacet
  facet normal 5.494540e-01 8.355240e-01 0.000000e+00
    outer loop
      vertex -1.250000e+00 -2.165061e+00 1.000000e+01
      vertex -1.250000e+00 -2.165061e+00 3.469447e-15
      vertex -1.606970e+00 -1.915111e+00 3.469447e-15
    endloop
  endfacet
  facet normal 5.972114e-01 8.020838e-01 0.000000e+00
    outer loop
      vertex -1.250000e+00 -2.165061e+00 1.000000e+01
      vertex -1.606970e+00 -1.915111e+00 3.469447e-15
      vertex -1.606970e+00 -1.915111e+00 1.000000e+01
    endloop
  endfacet
  facet normal 6.861938e-01 7.274188e-01 0.000000e+00
    outer loop
      vertex -1.606970e+00 -1.915111e+00 1.000000e+01
      vertex -1.606970e+00 -1.915111e+00 3.469447e-15
      vertex -1.915110e+00 -1.606968e+00 3.469447e-15
    endloop
  endfacet
  facet normal 7.274188e-01 6.861938e-01 0.000000e+00
    outer loop
      vertex -1.606970e+00 -1.915111e+00 1.000000e+01
      vertex -1.915110e+00 -1.606968e+00 3.469447e-15
      vertex -1.915110e+00 -1.606968e+00 1.000000e+01
    endloop
  endfacet
  facet normal 8.020838e-01 5.972114e-01 0.000000e+00
    outer loop
      vertex -1.915110e+00 -1.606968e+00 1.000000e+01
      vertex -1.915110e+00 -1.606968e+00 3.469447e-15
      vertex -2.165060e+00 -1.249999e+00 3.469447e-15
    endloop
  endfacet
  facet normal 8.355240e-01 5.494540e-01 0.000000e+00
    outer loop
      vertex -1.915110e+00 -1.606968e+00 1.000000e+01
      vertex -2.165060e+00 -1.249999e+00 3.469447e-15
      vertex -2.165060e+00 -1.249999e+00 1.000000e+01
    endloop
  endfacet
  facet normal 8.936031e-01 4.488580e-01 0.000000e+00
    outer loop
      vertex -2.165060e+00 -1.249999e+00 1.000000e+01
      vertex -2.165060e+00 -1.249999e+00 3.469447e-15
      vertex -2.349230e+00 -8.550491e-01 3.469447e-15
    endloop
  endfacet
  facet normal 9.182422e-01 3.960194e-01 0.000000e+00
    outer loop
      vertex -2.165060e+00 -1.249999e+00 1.000000e+01
      vertex -2.349230e+00 -8.550491e-01 3.469447e-15
      vertex -2.349230e+00 -8.550491e-01 1.000000e+01
    endloop
  endfacet
  facet normal 9.579706e-01 2.868663e-01 0.000000e+00
    outer loop
      vertex -2.349230e+00 -8.550491e-01 1.000000e+01
      vertex -2.349230e+00 -8.550491e-01 3.469447e-15
      vertex -2.462019e+00 -4.341192e-01 3.469447e-15
    endloop
  endfacet
  facet normal 9.730600e-01 2.305519e-01 0.000000e+00
    outer loop
      vertex -2.349230e+00 -8.550491e-01 1.000000e+01
      vertex -2.462019e+00 -4.341192e-01 3.469447e-15
      vertex -2.462019e+00 -4.341192e-01 1.000000e+01
    endloop
  endfacet
  facet normal 9.932307e-01 1.161583e-01 0.000000e+00
    outer loop
      vertex -2.462019e+00 -4.341192e-01 1.000000e+01
      vertex -2.462019e+00 -4.341192e-01 3.469447e-15
      vertex -2.500000e+00 7.152557e-07 3.469447e-15
    endloop
  endfacet
endsolid Default
