<?xml version="1.0" encoding="UTF-8"?>
<!DOCTYPE svg PUBLIC "-//W3C//DTD SVG 1.1//EN" "http://www.w3.org/Graphics/SVG/1.1/DTD/svg11.dtd">
<svg xmlns="http://spec.makerbot.com/2011/region" xml:space="preserve" style="shape-rendering:geometricPrecision; text-rendering:geometricPrecision; image-rendering:optimizeQuality; fill-rule:evenodd; clip-rule:evenodd" xmlns:xlink="http://www.w3.org/1999/xlink" width="100.452mm" height="100.452mm" stroke="black" stroke-width="0.254" fill="none">
<material name="A" type="ABS" color="black"/> 
<style type="text/css">
  path.shell_envelope { stroke: black; }
  path.fill_envelope { stroke: blue; }
  path.slice_envelope { stroke: red; }
</style>
<path class="slice_envelope" fill="#ff0000" fill-opacity="0.5" stroke="none" d="M80.451,25.120 L80.451,22.539 L77.912,20.000 L61.142,20.000 L59.486,24.140 L59.486,24.825 L57.332,24.825 L57.332,23.860 L43.119,23.860 L43.119,24.825 L40.965,24.825 L40.965,24.140 L39.309,20.000 L22.540,20.000 L20.000,22.539 L20.000,39.309 L24.140,40.965 L24.825,40.965 L24.825,43.119 L23.860,43.119 L23.860,57.332 L24.825,57.332 L24.825,59.486 L24.140,59.486 L20.000,61.142 L20.000,77.911 L22.540,80.451 L39.309,80.451 L40.965,76.311 L40.965,75.625 L43.119,75.625 L43.119,76.590 L57.332,76.590 L57.332,75.625 L59.486,75.625 L59.486,76.311 L61.142,80.451 L77.912,80.451 L80.451,77.911 L80.451,61.142 L76.311,59.486 L75.625,59.486 L75.625,57.332 L76.590,57.332 L76.590,43.119 L75.625,43.119 L75.625,40.965 L76.311,40.965 L80.451,39.309 Z M42.291,55.695 L41.614,54.547 L41.142,53.435 L40.693,51.495 L28.306,51.495 L28.628,54.151 L28.986,55.779 L27.548,57.332 L26.731,57.332 L26.731,59.486 L30.318,59.486 L31.471,61.642 L32.963,63.793 L34.700,65.751 L36.658,67.488 L38.809,68.980 L40.965,70.133 L40.965,73.720 L43.119,73.720 L43.119,72.905 L44.674,71.465 L46.567,71.875 L48.956,72.145 L48.956,59.758 L46.899,59.270 L44.756,58.160 L42.957,56.552 Z M62.009,51.495 L72.145,51.495 L71.824,54.151 L71.465,55.777 L72.905,57.332 L73.720,57.332 L73.720,59.486 L70.133,59.486 L68.980,61.642 L67.488,63.793 L65.751,65.751 L63.793,67.488 L61.642,68.980 L59.486,70.133 L59.486,73.720 L57.332,73.720 L57.332,72.903 L55.779,71.465 L53.885,71.875 L51.496,72.145 L51.496,59.758 L53.552,59.270 L55.695,58.160 L57.494,56.552 L58.228,55.591 L58.837,54.547 L59.309,53.435 L59.758,51.495 Z M51.496,37.486 L51.496,28.306 L54.151,28.627 L55.777,28.986 L57.332,27.546 L57.332,26.731 L59.486,26.731 L59.486,30.318 L61.642,31.471 L63.793,32.963 L65.751,34.700 L67.488,36.658 L68.980,38.809 L70.133,40.965 L73.720,40.965 L73.720,43.119 L72.903,43.119 L71.465,44.672 L71.952,47.228 L72.145,48.955 L59.758,48.955 L59.270,46.899 L58.160,44.756 L56.552,42.957 L55.591,42.223 L54.547,41.614 L53.435,41.142 L51.496,40.693 Z M43.899,42.957 L44.859,42.223 L45.904,41.614 L47.016,41.142 L48.956,40.693 L48.956,28.306 L45.821,28.746 L44.672,28.986 L43.119,27.548 L43.119,26.731 L40.965,26.731 L40.965,30.318 L38.809,31.471 L36.658,32.963 L34.700,34.700 L32.963,36.658 L31.471,38.809 L30.318,40.965 L26.731,40.965 L26.731,43.119 L27.546,43.119 L28.986,44.674 L28.576,46.567 L28.306,48.955 L40.693,48.955 L41.181,46.899 L42.291,44.756 Z" />

<path class="shell_envelope" material="A" fill="black" stroke="none" d="M80.136,25.120 L80.136,39.095 L76.250,40.650 L75.495,40.650 L75.310,40.834 L75.310,43.249 L75.495,43.433 L76.275,43.433 L76.275,57.017 L75.495,57.017 L75.310,57.202 L75.310,59.616 L75.495,59.801 L76.250,59.801 L80.136,61.355 L80.136,77.780 L77.780,80.136 L61.355,80.136 L59.801,76.250 L59.801,75.495 L59.616,75.310 L57.202,75.310 L57.017,75.495 L57.017,76.275 L43.433,76.275 L43.433,75.495 L43.249,75.310 L40.834,75.310 L40.650,75.495 L40.650,76.250 L39.095,80.136 L22.670,80.136 L20.314,77.780 L20.314,61.355 L24.200,59.801 L24.955,59.801 L25.140,59.616 L25.140,57.202 L24.955,57.017 L24.175,57.017 L24.175,43.433 L24.955,43.433 L25.140,43.249 L25.140,40.834 L24.955,40.650 L24.200,40.650 L20.314,39.095 L20.314,22.670 L22.670,20.314 L39.095,20.314 L40.650,24.200 L40.650,24.955 L40.834,25.140 L43.249,25.140 L43.433,24.955 L43.433,24.175 L57.017,24.175 L57.017,24.955 L57.202,25.140 L59.616,25.140 L59.801,24.955 L59.801,24.200 L61.355,20.314 L77.781,20.314 L80.136,22.670 Z M32.714,36.462 L34.477,34.477 L36.462,32.714 L38.644,31.201 L40.650,30.129 L40.650,26.600 L40.834,26.416 L43.249,26.416 L43.433,26.600 L43.433,27.409 L44.766,28.644 L45.767,28.435 L49.054,27.974 L49.270,28.162 L49.270,40.802 L49.134,40.975 L47.113,41.442 L46.027,41.904 L45.018,42.495 L44.112,43.190 L42.549,44.940 L41.477,47.011 L40.974,49.134 L40.802,49.270 L28.165,49.270 L27.977,49.060 L28.265,46.515 L28.643,44.767 L27.408,43.433 L26.600,43.433 L26.416,43.249 L26.416,40.834 L26.600,40.650 L30.129,40.650 L31.201,38.644 Z M54.233,28.322 L51.393,27.976 L51.181,28.164 L51.181,40.802 L51.317,40.975 L53.363,41.448 L54.404,41.896 L55.417,42.486 L56.337,43.189 L57.898,44.936 L58.973,47.009 L59.477,49.134 L59.649,49.270 L72.285,49.270 L72.473,49.060 L72.263,47.181 L71.803,44.769 L73.041,43.433 L73.850,43.433 L74.035,43.249 L74.035,40.834 L73.850,40.650 L70.321,40.650 L69.249,38.644 L67.736,36.462 L65.974,34.477 L63.988,32.714 L61.807,31.201 L59.801,30.129 L59.801,26.600 L59.616,26.416 L57.202,26.416 L57.017,26.600 L57.017,27.408 L55.684,28.642 Z M72.134,54.203 L72.474,51.392 L72.286,51.180 L59.648,51.180 L59.476,51.317 L59.008,53.337 L58.555,54.403 L57.965,55.416 L57.261,56.337 L55.515,57.898 L53.441,58.973 L51.316,59.477 L51.181,59.649 L51.181,72.285 L51.391,72.473 L53.936,72.186 L55.685,71.807 L57.017,73.041 L57.017,73.850 L57.202,74.035 L59.616,74.035 L59.801,73.850 L59.801,70.321 L61.807,69.249 L63.988,67.736 L65.974,65.974 L67.736,63.988 L69.249,61.807 L70.321,59.801 L73.850,59.801 L74.035,59.616 L74.035,57.202 L73.850,57.017 L73.042,57.017 L71.808,55.683 Z M40.802,51.180 L40.975,51.317 L41.448,53.363 L41.895,54.402 L42.552,55.517 L43.189,56.336 L44.936,57.898 L47.009,58.973 L49.135,59.477 L49.270,59.649 L49.270,72.285 L49.060,72.473 L46.515,72.186 L44.766,71.807 L43.433,73.042 L43.433,73.850 L43.249,74.035 L40.834,74.035 L40.650,73.850 L40.650,70.321 L38.644,69.249 L36.462,67.736 L34.477,65.974 L32.714,63.988 L31.201,61.807 L30.129,59.801 L26.600,59.801 L26.416,59.616 L26.416,57.202 L26.600,57.017 L27.409,57.017 L28.643,55.685 L28.317,54.204 L27.976,51.392 L28.164,51.180 Z" />
<path class="fill_envelope" material="A" fill="blue" d="M79.506,25.120 L79.506,38.669 L76.129,40.020 L75.234,40.020 L74.680,40.573 L74.680,43.510 L75.234,44.063 L75.645,44.063 L75.645,56.387 L75.234,56.387 L74.680,56.941 L74.680,59.877 L75.234,60.431 L76.129,60.431 L79.506,61.781 L79.506,77.519 L77.519,79.506 L61.781,79.506 L60.431,76.129 L60.431,75.234 L59.877,74.680 L56.941,74.680 L56.387,75.234 L56.387,75.645 L44.063,75.645 L44.063,75.234 L43.510,74.680 L40.573,74.680 L40.020,75.234 L40.020,76.129 L38.669,79.506 L22.931,79.506 L20.944,77.519 L20.944,61.781 L24.321,60.431 L25.216,60.431 L25.770,59.877 L25.770,56.941 L25.216,56.387 L24.805,56.387 L24.805,44.063 L25.216,44.063 L25.770,43.510 L25.770,40.573 L25.216,40.020 L24.321,40.020 L20.944,38.669 L20.944,22.931 L22.931,20.944 L38.669,20.944 L40.020,24.321 L40.020,25.216 L40.573,25.770 L43.510,25.770 L44.063,25.216 L44.063,24.805 L56.387,24.805 L56.387,25.216 L56.941,25.770 L59.877,25.770 L60.431,25.216 L60.431,24.321 L61.781,20.944 L77.520,20.944 L79.506,22.931 Z M32.218,36.072 L34.031,34.031 L36.072,32.218 L38.315,30.663 L40.020,29.751 L40.020,26.339 L40.573,25.786 L43.510,25.786 L44.063,26.339 L44.063,27.134 L44.956,27.961 L49.251,27.310 L49.900,27.875 L49.900,41.022 L49.490,41.539 L47.309,42.043 L46.274,42.484 L45.335,43.039 L44.530,43.664 L43.073,45.299 L42.070,47.234 L41.536,49.493 L41.021,49.900 L27.883,49.900 L27.319,49.269 L27.642,46.413 L27.958,44.954 L27.133,44.063 L26.339,44.063 L25.786,43.510 L25.786,40.573 L26.339,40.020 L29.751,40.020 L30.663,38.315 Z M54.309,27.694 L51.187,27.317 L50.551,27.881 L50.551,41.022 L50.961,41.539 L53.182,42.053 L54.122,42.460 L55.064,43.009 L55.906,43.654 L57.376,45.298 L58.377,47.229 L58.914,49.493 L59.430,49.900 L72.567,49.900 L73.131,49.270 L72.887,47.087 L72.482,44.963 L73.316,44.063 L74.111,44.063 L74.665,43.510 L74.665,40.573 L74.111,40.020 L70.698,40.020 L69.788,38.315 L68.232,36.072 L66.420,34.031 L64.378,32.218 L62.136,30.663 L60.431,29.752 L60.431,26.339 L59.877,25.786 L56.941,25.786 L56.387,26.339 L56.387,27.133 L55.498,27.956 Z M72.756,54.309 L73.134,51.186 L72.570,50.550 L59.428,50.550 L58.912,50.961 L58.407,53.141 L57.990,54.121 L57.441,55.064 L56.796,55.906 L55.152,57.376 L53.221,58.377 L50.958,58.914 L50.551,59.430 L50.551,72.567 L51.181,73.131 L54.038,72.808 L55.498,72.492 L56.387,73.316 L56.387,74.111 L56.941,74.665 L59.877,74.665 L60.431,74.111 L60.431,70.698 L62.136,69.788 L64.378,68.232 L66.420,66.420 L68.232,64.378 L69.788,62.136 L70.698,60.431 L74.111,60.431 L74.665,59.877 L74.665,56.941 L74.111,56.387 L73.317,56.387 L72.494,55.497 Z M41.022,50.550 L41.539,50.961 L42.052,53.176 L42.460,54.121 L43.074,55.162 L43.650,55.904 L45.298,57.376 L47.229,58.377 L49.493,58.914 L49.900,59.430 L49.900,72.567 L49.270,73.131 L46.413,72.808 L44.953,72.492 L44.063,73.317 L44.063,74.111 L43.510,74.665 L40.573,74.665 L40.020,74.111 L40.020,70.698 L38.315,69.788 L36.072,68.232 L34.031,66.420 L32.218,64.378 L30.663,62.136 L29.752,60.431 L26.339,60.431 L25.786,59.877 L25.786,56.941 L26.339,56.387 L27.134,56.387 L27.957,55.499 L27.695,54.310 L27.317,51.186 L27.881,50.550 Z" />
</svg>
